<?xml version="1.0" encoding="UTF-8" standalone="no"?><!-- Generator: Gravit.io --><svg xmlns="http://www.w3.org/2000/svg" xmlns:xlink="http://www.w3.org/1999/xlink" style="isolation:isolate" viewBox="-515.578 174.457 101 101" width="101pt" height="101pt"><defs><clipPath id="_clipPath_oFtznoFlkHPz9S4YOm2DyG6mXVAx4nLy"><rect x="-520.578" y="91.338" width="478.12" height="498.991"/></clipPath></defs><g clip-path="url(#_clipPath_oFtznoFlkHPz9S4YOm2DyG6mXVAx4nLy)"><circle vector-effect="non-scaling-stroke" cx="-464.8981694897278" cy="224.54427164496315" r="49.99999999999997" fill="rgb(255,255,255)"/><circle vector-effect="non-scaling-stroke" cx="-92.45871163769931" cy="155.80540150481113" r="50" fill="rgb(213,213,213)"/><circle vector-effect="non-scaling-stroke" cx="-139.60445608733707" cy="525.3241093663986" r="50" fill="rgb(232,205,151)"/><clipPath id="_clipPath_kH5SLVog2NkASAFfNT7dQQzXtjIwoWtX"><rect x="-494.837" y="161.278" width="61.282" height="128.935" transform="matrix(1,0,0,1,0,0)" fill="rgb(255,255,255)"/></clipPath><g clip-path="url(#_clipPath_kH5SLVog2NkASAFfNT7dQQzXtjIwoWtX)"><g><g clip-path="url(#_clipPath_8GEGIRtOkNISKZerL3MsRxY3S5YdrM5V)"><text transform="matrix(1,0,0,1,-494.8,258.68)" style="font-family:'Playfair Display';font-weight:700;font-size:90px;font-style:normal;font-variant-ligatures:none;fill:#000000;stroke:none;">T</text></g><defs><clipPath id="_clipPath_8GEGIRtOkNISKZerL3MsRxY3S5YdrM5V"><rect x="0" y="0" width="63" height="119.97" transform="matrix(1,0,0,1,-494.8,161.3)"/></clipPath></defs></g></g><rect x="-467.9" y="214.025" width="5.77" height="28.108" transform="matrix(-1,0,0,-1,-930.03,456.158)" fill="rgb(255,255,255)"/><path d=" M -484.251 249.561 L -486.085 244.122 L -467.87 238.035 L -462.13 242.133 L -484.251 249.561 Z " fill="rgb(255,255,255)"/><path d=" M -484.619 249.559 L -486.452 244.12 L -471.938 239.39 L -471.938 245.44 L -484.619 249.559 Z " fill="rgb(0,0,0)"/><clipPath id="_clipPath_rtSXkXezKM6oc6fgp2sNyQOkpe3Nz1DD"><rect x="-169.441" y="461.394" width="61.282" height="128.935" transform="matrix(1,0,0,1,0,0)" fill="rgb(255,255,255)"/></clipPath><g clip-path="url(#_clipPath_rtSXkXezKM6oc6fgp2sNyQOkpe3Nz1DD)"><g><g clip-path="url(#_clipPath_scFFqnvF8qRvQi6V4MOw3TXmtFtdfjRn)"><text transform="matrix(1,0,0,1,-169.441,558.774)" style="font-family:'Playfair Display';font-weight:700;font-size:90px;font-style:normal;font-variant-ligatures:none;fill:[Object GRGBColor];stroke:none;">T</text></g><defs><clipPath id="_clipPath_scFFqnvF8qRvQi6V4MOw3TXmtFtdfjRn"><rect x="0" y="0" width="63" height="119.97" transform="matrix(1,0,0,1,-169.441,461.394)"/></clipPath></defs></g></g><path d=" M -142.474 542.22 L -136.734 542.22 L -136.734 514.141 L -142.474 514.141 L -142.474 542.22 Z " fill="rgb(71,71,71)"/><path d=" M -158.855 549.676 L -160.688 544.237 L -142.474 538.15 L -136.734 542.22 L -158.855 549.676 Z " fill="rgb(71,71,71)"/><path d=" M -158.855 549.676 L -160.688 544.237 L -146.633 539.476 L -146.633 545.557 L -158.855 549.676 Z " fill="rgb(207,114,72)"/><clipPath id="_clipPath_zafQ4YUpHJjK8hwxRw5qScrIVec76hDH"><rect x="-122.296" y="91.338" width="61.282" height="128.935" transform="matrix(1,0,0,1,0,0)" fill="rgb(255,255,255)"/></clipPath><g clip-path="url(#_clipPath_zafQ4YUpHJjK8hwxRw5qScrIVec76hDH)"><g><g clip-path="url(#_clipPath_1fESY6TMLxht9kD2zFB9Pg44Whyk8pJY)"><text transform="matrix(1,0,0,1,-122.296,188.718)" style="font-family:'Playfair Display';font-weight:700;font-size:90px;font-style:normal;font-variant-ligatures:none;fill:[Object GRGBColor];stroke:none;">T</text></g><defs><clipPath id="_clipPath_1fESY6TMLxht9kD2zFB9Pg44Whyk8pJY"><rect x="0" y="0" width="63" height="119.97" transform="matrix(1,0,0,1,-122.296,91.338)"/></clipPath></defs></g></g><path d=" M -95.329 172.164 L -89.589 172.164 L -89.589 144.085 L -95.329 144.085 L -95.329 172.164 Z " fill="rgb(255,255,255)"/><path d=" M -111.71 179.62 L -113.543 174.181 L -95.329 168.094 L -89.589 172.164 L -111.71 179.62 Z " fill="rgb(255,255,255)"/><path d=" M -111.71 179.62 L -113.543 174.181 L -99.488 169.42 L -99.488 175.501 L -111.71 179.62 Z " fill="rgb(71,71,71)"/></g></svg>