<?xml version="1.0" encoding="UTF-8" standalone="no"?><!-- Generator: Gravit.io --><svg xmlns="http://www.w3.org/2000/svg" xmlns:xlink="http://www.w3.org/1999/xlink" style="isolation:isolate" viewBox="-189.886 474.373 101 101" width="101pt" height="101pt"><defs><clipPath id="_clipPath_1sAoSOIBdyQl8Ys2CgvkGtnpnB2Fwzvk"><rect x="-514.898" y="161.278" width="438.142" height="429.051"/></clipPath></defs><g clip-path="url(#_clipPath_1sAoSOIBdyQl8Ys2CgvkGtnpnB2Fwzvk)"><circle vector-effect="non-scaling-stroke" cx="-464.8981694897278" cy="224.54427164496315" r="49.99999999999997" fill="rgb(204,74,171)"/><circle vector-effect="non-scaling-stroke" cx="-139.60445608733707" cy="525.3241093663986" r="50" fill="rgb(232,205,151)"/><clipPath id="_clipPath_Zcerb05prLvKjNsDXEHF1keiHD8t9FoT"><rect x="-494.837" y="161.278" width="61.282" height="128.935" transform="matrix(1,0,0,1,0,0)" fill="rgb(255,255,255)"/></clipPath><g clip-path="url(#_clipPath_Zcerb05prLvKjNsDXEHF1keiHD8t9FoT)"><g><g clip-path="url(#_clipPath_LhxxLsrSKRTRuuhuW7JBNMBL7XnXhQ8T)"><text transform="matrix(1,0,0,1,-494.837,258.658)" style="font-family:'Playfair Display';font-weight:700;font-size:90px;font-style:normal;font-variant-ligatures:none;fill:#FFFFFF;stroke:none;">T</text></g><defs><clipPath id="_clipPath_LhxxLsrSKRTRuuhuW7JBNMBL7XnXhQ8T"><rect x="0" y="0" width="63" height="119.97" transform="matrix(1,0,0,1,-494.837,161.278)"/></clipPath></defs></g></g><rect x="-467.87" y="214.025" width="5.74" height="27.96" transform="matrix(-1,0,0,-1,-929.999,456.009)" fill="rgb(55,33,116)"/><path d=" M -484.251 249.561 L -486.085 244.122 L -467.87 238.035 L -462.13 242.105 L -484.251 249.561 Z " fill="rgb(204,74,171)"/><path d=" M -484.48 249.711 L -486.313 244.272 L -472.258 239.511 L -472.258 245.592 L -484.48 249.711 Z " fill="rgb(212,126,28)"/><clipPath id="_clipPath_SxxG4cyKjfbx8NLD85ttvuOR8BHmOxFU"><rect x="-169.441" y="461.394" width="61.282" height="128.935" transform="matrix(1,0,0,1,0,0)" fill="rgb(255,255,255)"/></clipPath><g clip-path="url(#_clipPath_SxxG4cyKjfbx8NLD85ttvuOR8BHmOxFU)"><g><g clip-path="url(#_clipPath_rQ7x3SGmDb9vbBYYHkVQGDqPn5UuGh8r)"><text transform="matrix(1,0,0,1,-169.441,558.774)" style="font-family:'Playfair Display';font-weight:700;font-size:90px;font-style:normal;font-variant-ligatures:none;fill:#CF7248;stroke:none;">T</text></g><defs><clipPath id="_clipPath_rQ7x3SGmDb9vbBYYHkVQGDqPn5UuGh8r"><rect x="0" y="0" width="63" height="119.97" transform="matrix(1,0,0,1,-169.441,461.394)"/></clipPath></defs></g></g><path d=" M -142.474 542.22 L -136.734 542.22 L -136.734 514.141 L -142.474 514.141 L -142.474 542.22 Z " fill="rgb(71,71,71)"/><path d=" M -158.855 549.676 L -160.688 544.237 L -142.474 538.15 L -136.734 542.22 L -158.855 549.676 Z " fill="rgb(71,71,71)"/><path d=" M -158.855 549.676 L -160.688 544.237 L -146.633 539.476 L -146.633 545.557 L -158.855 549.676 Z " fill="rgb(207,114,72)"/></g></svg>