<?xml version="1.0" encoding="UTF-8" standalone="no"?><!-- Generator: Gravit.io --><svg xmlns="http://www.w3.org/2000/svg" xmlns:xlink="http://www.w3.org/1999/xlink" style="isolation:isolate" viewBox="-96.04 140.839 101 101" width="101pt" height="101pt"><defs><clipPath id="_clipPath_28Z8uUXq79VgsKh91BbTlFVVAUFa3cUz"><rect x="-144.04" y="107.839" width="182.685" height="160.689"/></clipPath></defs><g clip-path="url(#_clipPath_28Z8uUXq79VgsKh91BbTlFVVAUFa3cUz)"><circle vector-effect="non-scaling-stroke" cx="-45.982507666372946" cy="191.8033027834857" r="49.99999999999999" fill="rgb(255,255,255)"/><clipPath id="_clipPath_WKkXnAZiTWjXWVtQCpvjVtCl0fUvnqyL"><rect x="-75.015" y="129.427" width="61.282" height="128.935" transform="matrix(1,0,0,1,0,0)" fill="rgb(255,255,255)"/></clipPath><g clip-path="url(#_clipPath_WKkXnAZiTWjXWVtQCpvjVtCl0fUvnqyL)"><g><g clip-path="url(#_clipPath_q9Ry4laST09AA0JJnTOxcit2JhOMyPrW)"><text transform="matrix(1,0,0,1,-75.015,226.807)" style="font-family:'Playfair Display';font-weight:700;font-size:90px;font-style:normal;font-variant-ligatures:none;fill:#000000;stroke:none;">T</text></g><defs><clipPath id="_clipPath_q9Ry4laST09AA0JJnTOxcit2JhOMyPrW"><rect x="0" y="0" width="63" height="119.97" transform="matrix(1,0,0,1,-75.015,129.427)"/></clipPath></defs></g></g><path d=" M -64.429 217.709 L -66.262 212.27 L -48.048 206.183 L -42.308 210.253 L -64.429 217.709 Z " fill="rgb(255,255,255)"/><path d=" M -48.048 210.253 L -42.308 210.253 L -42.308 182.174 L -48.048 182.174 L -48.048 210.253 Z " fill="rgb(255,255,255)"/><path d=" M -64.429 217.709 L -66.262 212.27 L -52.207 207.509 L -52.207 213.59 L -64.429 217.709 Z " fill="rgb(0,0,0)"/></g></svg>