<?xml version="1.0" encoding="UTF-8" standalone="no"?><!-- Generator: Gravit.io --><svg xmlns="http://www.w3.org/2000/svg" xmlns:xlink="http://www.w3.org/1999/xlink" style="isolation:isolate" viewBox="-143.071 105.317 101 101" width="101pt" height="101pt"><defs><clipPath id="_clipPath_PwR2F0W74HVwAMGRAD5wjzD9ZiVuCMFs"><rect x="-514.898" y="91.338" width="487.957" height="498.991"/></clipPath></defs><g clip-path="url(#_clipPath_PwR2F0W74HVwAMGRAD5wjzD9ZiVuCMFs)"><circle vector-effect="non-scaling-stroke" cx="-464.8981694897278" cy="224.54427164496315" r="49.99999999999997" fill="rgb(204,74,171)"/><circle vector-effect="non-scaling-stroke" cx="-92.45871163769931" cy="155.80540150481113" r="50" fill="rgb(172,172,172)"/><circle vector-effect="non-scaling-stroke" cx="-139.60445608733707" cy="525.3241093663986" r="50" fill="rgb(232,205,151)"/><clipPath id="_clipPath_8CbB0xRbi16V1jsLrFL3scW7DLgl7rly"><rect x="-494.837" y="161.278" width="61.282" height="128.935" transform="matrix(1,0,0,1,0,0)" fill="rgb(255,255,255)"/></clipPath><g clip-path="url(#_clipPath_8CbB0xRbi16V1jsLrFL3scW7DLgl7rly)"><g><g clip-path="url(#_clipPath_j9trpQRL8ye4460f9JsIJ6OfiVInhNJv)"><text transform="matrix(1,0,0,1,-494.837,258.658)" style="font-family:'Playfair Display';font-weight:700;font-size:90px;font-style:normal;font-variant-ligatures:none;fill:#FFFFFF;stroke:none;">T</text></g><defs><clipPath id="_clipPath_j9trpQRL8ye4460f9JsIJ6OfiVInhNJv"><rect x="0" y="0" width="63" height="119.97" transform="matrix(1,0,0,1,-494.837,161.278)"/></clipPath></defs></g></g><rect x="-467.87" y="214.025" width="5.74" height="27.96" transform="matrix(-1,0,0,-1,-929.999,456.009)" fill="rgb(55,33,116)"/><path d=" M -484.251 249.561 L -486.085 244.122 L -467.87 238.035 L -462.13 242.105 L -484.251 249.561 Z " fill="rgb(204,74,171)"/><path d=" M -484.48 249.711 L -486.313 244.272 L -472.258 239.511 L -472.258 245.592 L -484.48 249.711 Z " fill="rgb(212,126,28)"/><clipPath id="_clipPath_sqAGnaRXjodToMg9qszyasxCgmBsbbIM"><rect x="-169.441" y="461.394" width="61.282" height="128.935" transform="matrix(1,0,0,1,0,0)" fill="rgb(255,255,255)"/></clipPath><g clip-path="url(#_clipPath_sqAGnaRXjodToMg9qszyasxCgmBsbbIM)"><g><g clip-path="url(#_clipPath_4lkvvhYLBH86NGzGDiXadkJIRaZ3N51c)"><text transform="matrix(1,0,0,1,-169.441,558.774)" style="font-family:'Playfair Display';font-weight:700;font-size:90px;font-style:normal;font-variant-ligatures:none;fill:#CF7248;stroke:none;">T</text></g><defs><clipPath id="_clipPath_4lkvvhYLBH86NGzGDiXadkJIRaZ3N51c"><rect x="0" y="0" width="63" height="119.97" transform="matrix(1,0,0,1,-169.441,461.394)"/></clipPath></defs></g></g><path d=" M -142.474 542.22 L -136.734 542.22 L -136.734 514.141 L -142.474 514.141 L -142.474 542.22 Z " fill="rgb(71,71,71)"/><path d=" M -158.855 549.676 L -160.688 544.237 L -142.474 538.15 L -136.734 542.22 L -158.855 549.676 Z " fill="rgb(71,71,71)"/><path d=" M -158.855 549.676 L -160.688 544.237 L -146.633 539.476 L -146.633 545.557 L -158.855 549.676 Z " fill="rgb(207,114,72)"/><clipPath id="_clipPath_wuyGa16CQd2jyfuxYZCs7PWeVeMOhoVT"><rect x="-122.296" y="91.338" width="61.282" height="128.935" transform="matrix(1,0,0,1,0,0)" fill="rgb(255,255,255)"/></clipPath><g clip-path="url(#_clipPath_wuyGa16CQd2jyfuxYZCs7PWeVeMOhoVT)"><g><g clip-path="url(#_clipPath_QfpWkq90eUxAn1u3PE8Ucl7FuXrI069O)"><text transform="matrix(1,0,0,1,-122.296,188.718)" style="font-family:'Playfair Display';font-weight:700;font-size:90px;font-style:normal;font-variant-ligatures:none;fill:#474747;stroke:none;">T</text></g><defs><clipPath id="_clipPath_QfpWkq90eUxAn1u3PE8Ucl7FuXrI069O"><rect x="0" y="0" width="63" height="119.97" transform="matrix(1,0,0,1,-122.296,91.338)"/></clipPath></defs></g></g><path d=" M -95.329 172.164 L -89.589 172.164 L -89.589 144.085 L -95.329 144.085 L -95.329 172.164 Z " fill="rgb(255,255,255)"/><path d=" M -111.71 179.62 L -113.543 174.181 L -95.329 168.094 L -89.589 172.164 L -111.71 179.62 Z " fill="rgb(255,255,255)"/><path d=" M -111.71 179.62 L -113.543 174.181 L -99.488 169.42 L -99.488 175.501 L -111.71 179.62 Z " fill="rgb(71,71,71)"/></g></svg>