<?xml version="1.0" encoding="UTF-8" standalone="no"?><!-- Generator: Gravit.io --><svg xmlns="http://www.w3.org/2000/svg" xmlns:xlink="http://www.w3.org/1999/xlink" style="isolation:isolate" viewBox="-515.446 173.594 101 101" width="101pt" height="101pt"><defs><clipPath id="_clipPath_vEF0lJCuUWZ03YTez4MsSoxmfXDUt8iF"><rect x="-521.446" y="91.338" width="478.987" height="498.991"/></clipPath></defs><g clip-path="url(#_clipPath_vEF0lJCuUWZ03YTez4MsSoxmfXDUt8iF)"><circle vector-effect="non-scaling-stroke" cx="-464.8981694897278" cy="224.54427164496315" r="49.99999999999997" fill="rgb(178,73,120)"/><circle vector-effect="non-scaling-stroke" cx="-92.45871163769931" cy="155.80540150481113" r="50" fill="rgb(213,213,213)"/><circle vector-effect="non-scaling-stroke" cx="-139.60445608733707" cy="525.3241093663986" r="50" fill="rgb(232,205,151)"/><clipPath id="_clipPath_g8uBSm8pg4H2LFuI4I0MIJ9U2MnxDSdy"><rect x="-494.837" y="161.278" width="61.282" height="128.935" transform="matrix(1,0,0,1,0,0)" fill="rgb(255,255,255)"/></clipPath><g clip-path="url(#_clipPath_g8uBSm8pg4H2LFuI4I0MIJ9U2MnxDSdy)"><g><g clip-path="url(#_clipPath_F8nNzt1fZCjSzyMqjDJNz0djahlfHvYL)"><text transform="matrix(1,0,0,1,-494.837,258.658)" style="font-family:'Playfair Display';font-weight:700;font-size:90px;font-style:normal;font-variant-ligatures:none;fill:#FFFFFF;stroke:none;">T</text></g><defs><clipPath id="_clipPath_F8nNzt1fZCjSzyMqjDJNz0djahlfHvYL"><rect x="0" y="0" width="63" height="119.97" transform="matrix(1,0,0,1,-494.837,161.278)"/></clipPath></defs></g></g><rect x="-467.87" y="214.025" width="5.74" height="27.96" transform="matrix(-1,0,0,-1,-929.999,456.009)" fill="rgb(55,33,116)"/><path d=" M -484.251 249.561 L -486.085 244.122 L -467.87 238.035 L -462.13 242.105 L -484.251 249.561 Z " fill="rgb(204,74,171)"/><path d=" M -484.48 249.711 L -486.313 244.272 L -471.969 239.42 L -471.969 245.427 L -484.48 249.711 Z " fill="rgb(212,126,28)"/><clipPath id="_clipPath_JhZ4lMjijRebnK5iC7x5GvpSCVw62Pfy"><rect x="-169.441" y="461.394" width="61.282" height="128.935" transform="matrix(1,0,0,1,0,0)" fill="rgb(255,255,255)"/></clipPath><g clip-path="url(#_clipPath_JhZ4lMjijRebnK5iC7x5GvpSCVw62Pfy)"><g><g clip-path="url(#_clipPath_muFDoohJuWHBx1zPAwlJ2OdYjoeLvukA)"><text transform="matrix(1,0,0,1,-169.441,558.774)" style="font-family:'Playfair Display';font-weight:700;font-size:90px;font-style:normal;font-variant-ligatures:none;fill:[Object GRGBColor];stroke:none;">T</text></g><defs><clipPath id="_clipPath_muFDoohJuWHBx1zPAwlJ2OdYjoeLvukA"><rect x="0" y="0" width="63" height="119.97" transform="matrix(1,0,0,1,-169.441,461.394)"/></clipPath></defs></g></g><path d=" M -142.474 542.22 L -136.734 542.22 L -136.734 514.141 L -142.474 514.141 L -142.474 542.22 Z " fill="rgb(71,71,71)"/><path d=" M -158.855 549.676 L -160.688 544.237 L -142.474 538.15 L -136.734 542.22 L -158.855 549.676 Z " fill="rgb(71,71,71)"/><path d=" M -158.855 549.676 L -160.688 544.237 L -146.633 539.476 L -146.633 545.557 L -158.855 549.676 Z " fill="rgb(207,114,72)"/><clipPath id="_clipPath_SXeALXCPKAaj0cufL9mUM09CcMxfv61n"><rect x="-122.296" y="91.338" width="61.282" height="128.935" transform="matrix(1,0,0,1,0,0)" fill="rgb(255,255,255)"/></clipPath><g clip-path="url(#_clipPath_SXeALXCPKAaj0cufL9mUM09CcMxfv61n)"><g><g clip-path="url(#_clipPath_DUvUn34jeQg0KWsD4mbJ5b7329bZTocT)"><text transform="matrix(1,0,0,1,-122.296,188.718)" style="font-family:'Playfair Display';font-weight:700;font-size:90px;font-style:normal;font-variant-ligatures:none;fill:[Object GRGBColor];stroke:none;">T</text></g><defs><clipPath id="_clipPath_DUvUn34jeQg0KWsD4mbJ5b7329bZTocT"><rect x="0" y="0" width="63" height="119.97" transform="matrix(1,0,0,1,-122.296,91.338)"/></clipPath></defs></g></g><path d=" M -95.329 172.164 L -89.589 172.164 L -89.589 144.085 L -95.329 144.085 L -95.329 172.164 Z " fill="rgb(255,255,255)"/><path d=" M -111.71 179.62 L -113.543 174.181 L -95.329 168.094 L -89.589 172.164 L -111.71 179.62 Z " fill="rgb(255,255,255)"/><path d=" M -111.71 179.62 L -113.543 174.181 L -99.488 169.42 L -99.488 175.501 L -111.71 179.62 Z " fill="rgb(71,71,71)"/></g></svg>