<?xml version="1.0" encoding="UTF-8" standalone="no"?><!-- Generator: Gravit.io --><svg xmlns="http://www.w3.org/2000/svg" xmlns:xlink="http://www.w3.org/1999/xlink" style="isolation:isolate" viewBox="565.216 243.197 56 66" width="56pt" height="66pt"><defs><clipPath id="_clipPath_Ld3LLOaoxOBzJSyKogh2zUy8h9WdjFIw"><rect x="391.385" y="204.819" width="237.651" height="223.806"/></clipPath></defs><g clip-path="url(#_clipPath_Ld3LLOaoxOBzJSyKogh2zUy8h9WdjFIw)"><g clip-path="url(#_clipPath_XaEFAyFfr5IiXTXqegeOml8oKPtiUMeF)"><text transform="matrix(1,0,0,1,465.452,397.071)" style="font-family:'Playfair Display';font-weight:700;font-size:90px;font-style:normal;fill:#cf7248;stroke:none;">T</text></g><defs><clipPath id="_clipPath_XaEFAyFfr5IiXTXqegeOml8oKPtiUMeF"><rect x="0" y="0" width="61.282" height="128.935" transform="matrix(1,0,0,1,465.452,299.691)"/></clipPath></defs><rect x="492.419" y="352.438" width="5.74" height="27.96" transform="matrix(-1,0,0,-1,990.579,732.835)" fill="rgb(91,91,91)"/><path d=" M 476.038 387.974 L 474.205 382.534 L 492.419 376.447 L 498.16 380.517 L 476.038 387.974 Z " fill="rgb(91,91,91)"/><g clip-path="url(#_clipPath_NgJ4Fk3R3y2vEL34vAqWn71YlN9xLjwq)"><text transform="matrix(1,0,0,1,391.385,302.199)" style="font-family:'Playfair Display';font-weight:700;font-size:90px;font-style:normal;fill:#ffffff;stroke:none;">T</text></g><defs><clipPath id="_clipPath_NgJ4Fk3R3y2vEL34vAqWn71YlN9xLjwq"><rect x="0" y="0" width="61.282" height="128.935" transform="matrix(1,0,0,1,391.385,204.819)"/></clipPath></defs><rect x="418.352" y="257.566" width="5.74" height="27.96" transform="matrix(-1,0,0,-1,842.444,543.092)" fill="rgb(55,33,116)"/><path d=" M 401.971 293.102 L 400.137 287.663 L 418.352 281.576 L 424.092 285.646 L 401.971 293.102 Z " fill="rgb(212,126,28)"/><g clip-path="url(#_clipPath_dY0PSCRkpOer534Ve0YwcSaeQEMOkWqg)"><text transform="matrix(1,0,0,1,561.881,307.631)" style="font-family:'Playfair Display';font-weight:700;font-size:90px;font-style:normal;fill:#ffffff;stroke:none;">T</text></g><defs><clipPath id="_clipPath_dY0PSCRkpOer534Ve0YwcSaeQEMOkWqg"><rect x="0" y="0" width="61.282" height="128.935" transform="matrix(1,0,0,1,561.881,210.251)"/></clipPath></defs><path d=" M 588.848 291.077 L 594.588 291.077 L 594.588 262.998 L 588.848 262.998 L 588.848 291.077 Z " fill="rgb(55,33,116)"/><path d=" M 572.467 298.533 L 570.634 293.094 L 588.848 287.007 L 594.588 291.077 L 572.467 298.533 Z " fill="rgb(145,56,122)"/><path d=" M 572.467 298.533 L 570.634 293.094 L 584.689 288.333 L 584.689 294.414 L 572.467 298.533 Z " fill="rgb(212,126,28)"/><g clip-path="url(#_clipPath_rPjGWF3N6uJfqtImG8WzoMUFYDe7BDyZ)"><text transform="matrix(1,0,0,1,546.216,393.059)" style="font-family:'Playfair Display';font-weight:700;font-size:90px;font-style:normal;fill:#474747;stroke:none;">T</text></g><defs><clipPath id="_clipPath_rPjGWF3N6uJfqtImG8WzoMUFYDe7BDyZ"><rect x="0" y="0" width="61.282" height="128.935" transform="matrix(1,0,0,1,546.216,295.679)"/></clipPath></defs><rect x="578.262" y="349.296" width="5.74" height="27.96" transform="matrix(-1,0,0,-1,1162.264,726.552)" fill="rgb(247,247,247)"/><path d=" M 561.881 384.832 L 560.048 379.393 L 578.262 373.306 L 584.002 377.376 L 561.881 384.832 Z " fill="rgb(247,247,247)"/></g></svg>