<?xml version="1.0" encoding="UTF-8" standalone="no"?><!-- Generator: Gravit.io --><svg xmlns="http://www.w3.org/2000/svg" xmlns:xlink="http://www.w3.org/1999/xlink" style="isolation:isolate" viewBox="1477 679.509 66 75" width="66pt" height="75pt"><defs><clipPath id="_clipPath_LdmnIPHcNJdeP3o9JgSnPhBiaw0z0wye"><rect width="2000" height="1500"/></clipPath></defs><g clip-path="url(#_clipPath_LdmnIPHcNJdeP3o9JgSnPhBiaw0z0wye)"><ellipse vector-effect="non-scaling-stroke" cx="873.4710893222176" cy="541.8503030659585" rx="151.0040185676063" ry="116.77084050568718" fill="rgb(235,235,235)"/><g clip-path="url(#_clipPath_AKVwAgHAOxypp5LKGj1QcRqGV90u90mU)"><text transform="matrix(2.727,2.727,-2.727,2.727,754.889,558.031)" style="font-family:'VCR OSD Mono';font-weight:400;font-size:63px;font-style:normal;fill:#7359c8;stroke:none;">T</text></g><defs><clipPath id="_clipPath_AKVwAgHAOxypp5LKGj1QcRqGV90u90mU"><rect x="0" y="0" width="43.815" height="62.018" transform="matrix(2.727,2.727,-2.727,2.727,906.961,405.959)"/></clipPath></defs><rect x="790.158" y="556.305" width="71.708" height="12.062" transform="matrix(0.707,-0.707,0.707,0.707,-155.698,748.783)" fill="rgb(255,255,255)"/><rect x="829.35" y="520.376" width="34.786" height="10.442" transform="matrix(-0.707,-0.707,0.707,-0.707,1073.827,1495.988)" fill="rgb(255,255,255)"/><rect x="45.561" y="1098.817" width="273" height="273" transform="matrix(1,0,0,1,0,0)" fill="rgb(0,0,0)"/><rect x="45.561" y="1098.817" width="273" height="273" transform="matrix(1,0,0,1,0,0)" fill="rgb(0,0,0)"/><path d=" M 23.953 158.567 C 23.953 79.968 87.766 16.155 166.366 16.155 C 244.966 16.155 308.779 79.968 308.779 158.567 C 308.779 237.167 244.966 300.98 166.366 300.98 C 87.766 300.98 23.953 237.167 23.953 158.567 Z " fill-rule="evenodd" fill="rgb(211,132,89)"/><g clip-path="url(#_clipPath_ZqoAkwVsH0xnuUyIHG1h4UdMl18soPyn)"><text transform="matrix(2.727,2.727,-2.727,2.727,11.131,207.381)" style="font-family:'Playfair Display';font-weight:400;font-size:63px;font-style:normal;fill:#ffffff;stroke:none;">T</text></g><defs><clipPath id="_clipPath_ZqoAkwVsH0xnuUyIHG1h4UdMl18soPyn"><rect x="0" y="0" width="43.815" height="62.018" transform="matrix(2.727,2.727,-2.727,2.727,167.078,51.434)"/></clipPath></defs><g clip-path="url(#_clipPath_dkGMmb4HbyHxw7N4cFmWtawlELilnLDB)"><text transform="matrix(4.006,0,0,4.006,148.1,151.196)" style="font-family:'Montserrat';font-weight:400;font-size:55px;font-style:normal;fill:#ffffff;stroke:none;">t</text></g><defs><clipPath id="_clipPath_dkGMmb4HbyHxw7N4cFmWtawlELilnLDB"><rect x="0" y="0" width="35.881" height="49.837" transform="matrix(4.006,0,0,4.006,148.1,-27.622)"/></clipPath></defs><path d=" M 635.075 159.373 C 635.075 80.773 698.888 16.96 777.487 16.96 C 856.087 16.96 919.9 80.773 919.9 159.373 C 919.9 237.972 856.087 301.785 777.487 301.785 C 698.888 301.785 635.075 237.972 635.075 159.373 Z " fill-rule="evenodd" fill="rgb(0,0,0)"/><g clip-path="url(#_clipPath_n59DAoe9FhtcdlIGlwHunuM4rpQyVDc2)"><text transform="matrix(2.727,2.727,-2.727,2.727,622.252,208.186)" style="font-family:'Playfair Display';font-weight:400;font-size:63px;font-style:normal;fill:#ffffff;stroke:none;">T</text></g><defs><clipPath id="_clipPath_n59DAoe9FhtcdlIGlwHunuM4rpQyVDc2"><rect x="0" y="0" width="43.815" height="62.018" transform="matrix(2.727,2.727,-2.727,2.727,778.199,52.239)"/></clipPath></defs><g clip-path="url(#_clipPath_6FClkIpDI2tRVDSZR40fVlFqyQTdqLEQ)"><text transform="matrix(4.006,0,0,4.006,759.221,152.002)" style="font-family:'Montserrat';font-weight:400;font-size:55px;font-style:normal;fill:#ffffff;stroke:none;">t</text></g><defs><clipPath id="_clipPath_6FClkIpDI2tRVDSZR40fVlFqyQTdqLEQ"><rect x="0" y="0" width="35.881" height="49.837" transform="matrix(4.006,0,0,4.006,759.221,-26.817)"/></clipPath></defs><path d=" M 635.075 159.373 C 635.075 80.773 698.888 16.96 777.487 16.96 C 856.087 16.96 919.9 80.773 919.9 159.373 C 919.9 237.972 856.087 301.785 777.487 301.785 C 698.888 301.785 635.075 237.972 635.075 159.373 Z " fill-rule="evenodd" fill="rgb(255,255,255)"/><g clip-path="url(#_clipPath_uc7bke2XjwyM2w4pkhlilD4IS9VgKN7D)"><text transform="matrix(2.727,2.727,-2.727,2.727,622.252,208.186)" style="font-family:'Playfair Display';font-weight:400;font-size:63px;font-style:normal;fill:#000000;stroke:none;">T</text></g><defs><clipPath id="_clipPath_uc7bke2XjwyM2w4pkhlilD4IS9VgKN7D"><rect x="0" y="0" width="43.815" height="62.018" transform="matrix(2.727,2.727,-2.727,2.727,778.199,52.239)"/></clipPath></defs><g clip-path="url(#_clipPath_SedOLEgcHbmT2MzIal5Ey9K2h01rVEwE)"><text transform="matrix(4.006,0,0,4.006,759.221,152.002)" style="font-family:'Montserrat';font-weight:400;font-size:55px;font-style:normal;fill:#000000;stroke:none;">t</text></g><defs><clipPath id="_clipPath_SedOLEgcHbmT2MzIal5Ey9K2h01rVEwE"><rect x="0" y="0" width="35.881" height="49.837" transform="matrix(4.006,0,0,4.006,759.221,-26.817)"/></clipPath></defs><g clip-path="url(#_clipPath_fYkCwGIPcTMhVpcAxK2QgBFXsrTYMSZO)"><text transform="matrix(2.727,2.727,-2.727,2.727,321.957,208.186)" style="font-family:'Playfair Display';font-weight:400;font-size:63px;font-style:normal;fill:#d38459;stroke:none;">T</text></g><defs><clipPath id="_clipPath_fYkCwGIPcTMhVpcAxK2QgBFXsrTYMSZO"><rect x="0" y="0" width="43.815" height="62.018" transform="matrix(2.727,2.727,-2.727,2.727,477.904,52.239)"/></clipPath></defs><g clip-path="url(#_clipPath_8yapy7kCwtESDSsqIpHnyryaYQTCVXIt)"><text transform="matrix(4.006,0,0,4.006,458.926,152.002)" style="font-family:'Montserrat';font-weight:400;font-size:55px;font-style:normal;fill:#d38459;stroke:none;">t</text></g><defs><clipPath id="_clipPath_8yapy7kCwtESDSsqIpHnyryaYQTCVXIt"><rect x="0" y="0" width="35.881" height="49.837" transform="matrix(4.006,0,0,4.006,458.926,-26.817)"/></clipPath></defs><g clip-path="url(#_clipPath_7KJgqK8q4H49ac2SxWVfolZNKUT2kj3x)"><text transform="matrix(2.727,2.727,-2.727,2.727,37.132,561.905)" style="font-family:'Playfair Display';font-weight:400;font-size:63px;font-style:normal;fill:#828282;stroke:none;">T</text></g><defs><clipPath id="_clipPath_7KJgqK8q4H49ac2SxWVfolZNKUT2kj3x"><rect x="0" y="0" width="43.815" height="62.018" transform="matrix(2.727,2.727,-2.727,2.727,193.078,405.959)"/></clipPath></defs><g clip-path="url(#_clipPath_Di0aGMFUtPMV5BWH0miVdMYxnzmKb7Ny)"><text transform="matrix(4.006,0,0,4.006,174.101,505.721)" style="font-family:'Montserrat';font-weight:400;font-size:55px;font-style:normal;fill:#828282;stroke:none;">t</text></g><defs><clipPath id="_clipPath_Di0aGMFUtPMV5BWH0miVdMYxnzmKb7Ny"><rect x="0" y="0" width="35.881" height="49.837" transform="matrix(4.006,0,0,4.006,174.101,326.903)"/></clipPath></defs><g clip-path="url(#_clipPath_eN3NdmWTTVsLyWZrmrOl6tt9o4HUk7qE)"><text transform="matrix(2.727,2.727,-2.727,2.727,397.031,561.905)" style="font-family:'Playfair Display';font-weight:400;font-size:63px;font-style:normal;fill:#7359c8;stroke:none;">T</text></g><defs><clipPath id="_clipPath_eN3NdmWTTVsLyWZrmrOl6tt9o4HUk7qE"><rect x="0" y="0" width="43.815" height="62.018" transform="matrix(2.727,2.727,-2.727,2.727,552.978,405.959)"/></clipPath></defs><g clip-path="url(#_clipPath_4lSOPjvZtKuSvgA9goaszin3v9TrvdxU)"><text transform="matrix(4.006,0,0,4.006,534,505.721)" style="font-family:'Montserrat';font-weight:400;font-size:55px;font-style:normal;fill:#7359c8;stroke:none;">t</text></g><defs><clipPath id="_clipPath_4lSOPjvZtKuSvgA9goaszin3v9TrvdxU"><rect x="0" y="0" width="35.881" height="49.837" transform="matrix(4.006,0,0,4.006,534,326.903)"/></clipPath></defs><g clip-path="url(#_clipPath_JViur7rFyXzccQOMDqb252MlhXOVIMYG)"><text transform="matrix(2.727,2.727,-2.727,2.727,40.334,910.265)" style="font-family:'Playfair Display';font-weight:400;font-size:63px;font-style:normal;fill:#000000;stroke:none;">T</text></g><defs><clipPath id="_clipPath_JViur7rFyXzccQOMDqb252MlhXOVIMYG"><rect x="0" y="0" width="43.815" height="62.018" transform="matrix(2.727,2.727,-2.727,2.727,196.28,754.319)"/></clipPath></defs><g clip-path="url(#_clipPath_LQdMEhxlPCV8dmE9EGHAASTKOWQwhPzf)"><text transform="matrix(4.006,0,0,4.006,177.303,854.081)" style="font-family:'Montserrat';font-weight:400;font-size:55px;font-style:normal;fill:#000000;stroke:none;">t</text></g><defs><clipPath id="_clipPath_LQdMEhxlPCV8dmE9EGHAASTKOWQwhPzf"><rect x="0" y="0" width="35.881" height="49.837" transform="matrix(4.006,0,0,4.006,177.303,675.263)"/></clipPath></defs><g clip-path="url(#_clipPath_Lzo41fVHTyagiwUxE5v3wCHLHsxTe0VR)"><text transform="matrix(2.727,2.727,-2.727,2.727,14.333,1296.141)" style="font-family:'Playfair Display';font-weight:400;font-size:63px;font-style:normal;fill:#ffffff;stroke:none;">T</text></g><defs><clipPath id="_clipPath_Lzo41fVHTyagiwUxE5v3wCHLHsxTe0VR"><rect x="0" y="0" width="43.815" height="62.018" transform="matrix(2.727,2.727,-2.727,2.727,170.279,1140.195)"/></clipPath></defs><g clip-path="url(#_clipPath_FrR4S0alzyP7z69ZYk9SFLdBYw2DsVK1)"><text transform="matrix(4.006,0,0,4.006,151.302,1239.957)" style="font-family:'Montserrat';font-weight:400;font-size:55px;font-style:normal;fill:#ffffff;stroke:none;">t</text></g><defs><clipPath id="_clipPath_FrR4S0alzyP7z69ZYk9SFLdBYw2DsVK1"><rect x="0" y="0" width="35.881" height="49.837" transform="matrix(4.006,0,0,4.006,151.302,1061.139)"/></clipPath></defs><rect x="448.354" y="1094.621" width="273" height="273" transform="matrix(1,0,0,1,0,0)" fill="rgb(0,0,0)"/><rect x="448.354" y="1093.621" width="273" height="273" transform="matrix(1,0,0,1,0,0)" fill="rgb(0,0,0)"/><g clip-path="url(#_clipPath_5dSuHKBA9uBOmoHFeSWywnel4E0aKjUS)"><text transform="matrix(3.026,3.026,-3.026,3.026,425.051,1264.804)" style="font-family:'Hultog';font-weight:400;font-size:63px;font-style:normal;fill:#ffffff;stroke:none;">T</text></g><defs><clipPath id="_clipPath_5dSuHKBA9uBOmoHFeSWywnel4E0aKjUS"><rect x="0" y="0" width="48.138" height="52.462" transform="matrix(3.026,3.026,-3.026,3.026,550.078,1139.777)"/></clipPath></defs><g clip-path="url(#_clipPath_Oj4Ed5jJEiWNAF6B7zMxVXp2592d33Fp)"><text transform="matrix(2.727,2.727,-2.727,2.727,400.233,949.793)" style="font-family:'Playfair Display';font-weight:400;font-size:63px;font-style:normal;fill:#d38459;stroke:none;">T</text></g><defs><clipPath id="_clipPath_Oj4Ed5jJEiWNAF6B7zMxVXp2592d33Fp"><rect x="0" y="0" width="43.815" height="62.018" transform="matrix(2.727,2.727,-2.727,2.727,556.179,793.847)"/></clipPath></defs><g clip-path="url(#_clipPath_eNDH8mhE9ccPQNmd8T6iSQA6gVpXJ3wq)"><text transform="matrix(4.006,0,0,4.006,537.202,893.609)" style="font-family:'Montserrat';font-weight:400;font-size:55px;font-style:normal;fill:#d38459;stroke:none;">t</text></g><defs><clipPath id="_clipPath_eNDH8mhE9ccPQNmd8T6iSQA6gVpXJ3wq"><rect x="0" y="0" width="35.881" height="49.837" transform="matrix(4.006,0,0,4.006,537.202,714.791)"/></clipPath></defs><g clip-path="url(#_clipPath_fes3EzYqyGeAx8RgSPpNnJREVJKS9WPT)"><text transform="matrix(2.727,2.727,-2.727,2.727,1020.12,1003.239)" style="font-family:'VCR OSD Mono';font-weight:400;font-size:63px;font-style:normal;fill:#7359c8;stroke:none;">T</text></g><defs><clipPath id="_clipPath_fes3EzYqyGeAx8RgSPpNnJREVJKS9WPT"><rect x="0" y="0" width="43.815" height="62.018" transform="matrix(2.727,2.727,-2.727,2.727,1172.192,851.166)"/></clipPath></defs><rect x="1055.389" y="1001.513" width="71.708" height="12.062" transform="matrix(0.707,-0.707,0.707,0.707,-392.824,1066.728)" fill="rgb(255,255,255)"/><rect x="1199.397" y="591.037" width="41.489" height="10.442" transform="matrix(-0.707,-0.707,0.707,-0.707,1661.292,1880.647)" fill="rgb(255,255,255)"/><rect x="1158.925" y="614.617" width="71.708" height="12.062" transform="matrix(0.707,-0.707,0.707,0.707,-88.922,1026.62)" fill="rgb(255,255,255)"/><rect x="1199.397" y="591.037" width="41.489" height="10.442" transform="matrix(-0.707,-0.707,0.707,-0.707,1661.292,1880.647)" fill="rgb(255,255,255)"/><rect x="1158.925" y="614.617" width="71.708" height="12.062" transform="matrix(0.707,-0.707,0.707,0.707,-88.922,1026.62)" fill="rgb(255,255,255)"/><rect x="1348.035" y="706.783" width="27.068" height="8.514" transform="matrix(0.866,0.5,-0.5,0.866,537.935,-585.523)" fill="rgb(105,105,105)"/><rect x="1339.613" y="723.427" width="29.716" height="8.989" transform="matrix(0.5,-0.866,0.866,0.5,46.837,1536.967)" fill="rgb(105,105,105)"/><rect x="1479.889" y="712.467" width="27.068" height="7.385" transform="matrix(0.866,0.5,-0.5,0.866,558.16,-650.764)" fill="rgb(255,255,255)"/><rect x="1472.742" y="729.778" width="29.716" height="6.695" transform="matrix(0.5,-0.866,0.866,0.5,108.895,1654.862)" fill="rgb(255,255,255)"/><g clip-path="url(#_clipPath_tWEjRH4ajcD3eqCXtjPrfHHuDv59Zqal)"><text transform="matrix(2.727,2.727,-2.727,2.727,1130.079,612.962)" style="font-family:'Bembo Std';font-weight:400;font-size:63px;font-style:normal;fill:#929292;stroke:none;">T</text></g><defs><clipPath id="_clipPath_tWEjRH4ajcD3eqCXtjPrfHHuDv59Zqal"><rect x="0" y="0" width="47.989" height="62.018" transform="matrix(2.727,2.727,-2.727,2.727,1244.192,498.849)"/></clipPath></defs><g clip-path="url(#_clipPath_cNtobTEBdOGlMbQoTf7hWXyReYdACpyd)"><text transform="matrix(1.337,0.772,-0.772,1.337,1327.253,731.474)" style="font-family:'Bembo Std';font-weight:400;font-size:63px;font-style:normal;fill:#929292;stroke:none;">T</text></g><defs><clipPath id="_clipPath_cNtobTEBdOGlMbQoTf7hWXyReYdACpyd"><rect x="0" y="0" width="47.989" height="62.018" transform="matrix(1.337,0.772,-0.772,1.337,1359.565,675.509)"/></clipPath></defs><g clip-path="url(#_clipPath_6FMwEzBrihvtkLWqfdqHCeZup2mCpxiz)"><text transform="matrix(1.337,0.772,-0.772,1.337,1459.937,739.821)" style="font-family:'VCR OSD Mono';font-weight:400;font-size:63px;font-style:normal;fill:#7359c8;stroke:none;">T</text></g><defs><clipPath id="_clipPath_6FMwEzBrihvtkLWqfdqHCeZup2mCpxiz"><rect x="0" y="0" width="47.989" height="62.018" transform="matrix(1.337,0.772,-0.772,1.337,1502.998,665.239)"/></clipPath></defs></g></svg>