<?xml version="1.0" encoding="UTF-8" standalone="no"?><!-- Generator: Gravit.io --><svg xmlns="http://www.w3.org/2000/svg" xmlns:xlink="http://www.w3.org/1999/xlink" style="isolation:isolate" viewBox="658.899 483.405 72 73" width="72pt" height="73pt"><defs><clipPath id="_clipPath_yhPLGAnhji7JybUZEt56j4Lmjgirjzqb"><rect x="170.42" y="201.283" width="618.031" height="389.005"/></clipPath></defs><g clip-path="url(#_clipPath_yhPLGAnhji7JybUZEt56j4Lmjgirjzqb)"><ellipse vector-effect="non-scaling-stroke" cx="734.2600393099589" cy="346.0431365095804" rx="45.70089618278905" ry="44.96163718824363" fill="rgb(131,192,207)"/><rect x="556.317" y="239.246" width="71.89" height="71.89" transform="matrix(1,0,0,1,0,0)" fill="rgb(131,192,207)"/><g clip-path="url(#_clipPath_hcEuMy1DzADGJ5DFOUwB0ZCxUdLKIX8v)"><text transform="matrix(1,0,0,1,465.452,397.071)" style="font-family:'Playfair Display';font-weight:700;font-size:90px;font-style:normal;fill:#cf7248;stroke:none;">T</text></g><defs><clipPath id="_clipPath_hcEuMy1DzADGJ5DFOUwB0ZCxUdLKIX8v"><rect x="0" y="0" width="61.282" height="128.935" transform="matrix(1,0,0,1,465.452,299.691)"/></clipPath></defs><rect x="492.419" y="352.438" width="5.74" height="27.96" transform="matrix(-1,0,0,-1,990.579,732.835)" fill="rgb(91,91,91)"/><path d=" M 476.038 387.974 L 474.205 382.534 L 492.419 376.447 L 498.16 380.517 L 476.038 387.974 Z " fill="rgb(91,91,91)"/><g clip-path="url(#_clipPath_gvpKxSR1cV1uzdJPgLRJWyBzbQo192ff)"><text transform="matrix(1,0,0,1,391.385,302.199)" style="font-family:'Playfair Display';font-weight:700;font-size:90px;font-style:normal;fill:#ffffff;stroke:none;">T</text></g><defs><clipPath id="_clipPath_gvpKxSR1cV1uzdJPgLRJWyBzbQo192ff"><rect x="0" y="0" width="61.282" height="128.935" transform="matrix(1,0,0,1,391.385,204.819)"/></clipPath></defs><rect x="418.352" y="257.566" width="5.74" height="27.96" transform="matrix(-1,0,0,-1,842.444,543.092)" fill="rgb(55,33,116)"/><path d=" M 401.971 293.102 L 400.137 287.663 L 418.352 281.576 L 424.092 285.646 L 401.971 293.102 Z " fill="rgb(212,126,28)"/><g clip-path="url(#_clipPath_nx9jmjmapPmJihTsZxSSVBACMOxc5Oie)"><text transform="matrix(1,0,0,1,561.881,307.631)" style="font-family:'Playfair Display';font-weight:700;font-size:90px;font-style:normal;fill:#000000;stroke:none;">T</text></g><defs><clipPath id="_clipPath_nx9jmjmapPmJihTsZxSSVBACMOxc5Oie"><rect x="0" y="0" width="61.282" height="128.935" transform="matrix(1,0,0,1,561.881,210.251)"/></clipPath></defs><rect x="658.944" y="483.63" width="71.89" height="71.89" transform="matrix(1,0,0,1,0,0)" fill="rgb(131,192,207)"/><g clip-path="url(#_clipPath_sSVAeZDce9mr00ZMpjboFfQcnH9gfI47)"><text transform="matrix(1,0,0,1,668.707,547.913)" style="font-family:'Playfair Display';font-weight:700;font-size:80px;font-style:normal;fill:#000000;stroke:none;">T</text></g><defs><clipPath id="_clipPath_sSVAeZDce9mr00ZMpjboFfQcnH9gfI47"><rect x="0" y="0" width="61.282" height="128.935" transform="matrix(1,0,0,1,668.707,461.353)"/></clipPath></defs><path d=" M 588.848 291.077 L 594.588 291.077 L 594.588 262.998 L 588.848 262.998 L 588.848 291.077 Z " fill="rgb(255,255,255)"/><path d=" M 572.467 298.533 L 570.634 293.094 L 588.848 287.007 L 594.588 291.077 L 572.467 298.533 Z " fill="rgb(255,255,255)"/><rect x="170.42" y="460.463" width="39.912" height="39.912" transform="matrix(1,0,0,1,0,0)" fill="rgb(131,192,207)"/><rect x="170.42" y="420.551" width="39.912" height="39.912" transform="matrix(1,0,0,1,0,0)" fill="rgb(195,195,195)"/><rect x="209.973" y="460.463" width="39.912" height="39.912" transform="matrix(1,0,0,1,0,0)" fill="rgb(242,125,180)"/><rect x="271.044" y="421.794" width="77.581" height="77.581" transform="matrix(1,0,0,1,0,0)" fill="rgb(0,0,0)"/><rect x="209.973" y="420.551" width="39.912" height="39.912" transform="matrix(1,0,0,1,0,0)" fill="rgb(238,161,73)"/><g clip-path="url(#_clipPath_FgEnv3nLfSGYiGQsKxqdbQGhKcwGPfAz)"><text transform="matrix(1,0,0,1,336.991,401.471)" style="font-family:'Playfair Display';font-weight:700;font-size:90px;font-style:normal;fill:#000000;stroke:none;">T</text></g><defs><clipPath id="_clipPath_FgEnv3nLfSGYiGQsKxqdbQGhKcwGPfAz"><rect x="0" y="0" width="61.282" height="128.935" transform="matrix(1,0,0,1,336.991,304.091)"/></clipPath></defs><g clip-path="url(#_clipPath_HdI027qstPvvyTRamen0Fgwop5eCiJp7)"><text transform="matrix(1,0,0,1,273.984,298.663)" style="font-family:'Playfair Display';font-weight:700;font-size:90px;font-style:normal;fill:#000000;stroke:none;">T</text></g><defs><clipPath id="_clipPath_HdI027qstPvvyTRamen0Fgwop5eCiJp7"><rect x="0" y="0" width="61.282" height="128.935" transform="matrix(1,0,0,1,273.984,201.283)"/></clipPath></defs><g clip-path="url(#_clipPath_Mr3J47y5Qrzg6XnBv6Nr8ztJfxAjQgLO)"><text transform="matrix(1,0,0,1,708.245,375.53)" style="font-family:'Playfair Display';font-weight:700;font-size:80px;font-style:normal;fill:#000000;stroke:none;">T</text></g><defs><clipPath id="_clipPath_Mr3J47y5Qrzg6XnBv6Nr8ztJfxAjQgLO"><rect x="0" y="0" width="61.282" height="128.935" transform="matrix(1,0,0,1,708.245,288.97)"/></clipPath></defs><path d=" M 362.394 384.531 L 371.724 384.531 L 371.724 356.452 L 362.394 356.452 L 362.394 384.531 Z " fill="rgb(255,255,255)"/><path d=" M 349.753 392.165 L 346.49 382.487 L 364.717 376.438 L 371.874 384.709 L 349.753 392.165 Z " fill="rgb(255,255,255)"/><path d=" M 572.467 298.533 L 570.634 293.094 L 584.689 288.333 L 584.689 294.414 L 572.467 298.533 Z " fill="rgb(255,255,255)"/><path d=" M 343.939 394.154 L 340.751 384.428 L 360.138 377.951 L 360.138 389.062 L 343.939 394.154 Z " fill="rgb(0,0,0)"/><g clip-path="url(#_clipPath_ZlSXVrTJt5ooX0WDXrGzRsYoBJnMl7gy)"><text transform="matrix(1,0,0,1,546.216,393.059)" style="font-family:'Playfair Display';font-weight:700;font-size:90px;font-style:normal;fill:#474747;stroke:none;">T</text></g><defs><clipPath id="_clipPath_ZlSXVrTJt5ooX0WDXrGzRsYoBJnMl7gy"><rect x="0" y="0" width="61.282" height="128.935" transform="matrix(1,0,0,1,546.216,295.679)"/></clipPath></defs><path d=" M 348.5 499.375 L 271.044 421.919 L 348.5 421.919 L 348.5 499.375 Z " fill="rgb(131,192,207)"/><rect x="578.262" y="349.296" width="5.74" height="27.96" transform="matrix(-1,0,0,-1,1162.264,726.552)" fill="rgb(247,247,247)"/><path d=" M 561.881 384.832 L 560.048 379.393 L 578.262 373.306 L 584.002 377.376 L 561.881 384.832 Z " fill="rgb(247,247,247)"/><g clip-path="url(#_clipPath_4PgnZkjusKQe0fe66ZMGCx6a0GO0zHYE)"><text transform="matrix(1,0,0,1,278.832,493.047)" style="font-family:'Playfair Display';font-weight:700;font-size:90px;font-style:normal;fill:#ffffff;stroke:none;">T</text></g><defs><clipPath id="_clipPath_4PgnZkjusKQe0fe66ZMGCx6a0GO0zHYE"><rect x="0" y="0" width="61.282" height="104.708" transform="matrix(1,0,0,1,278.832,395.667)"/></clipPath></defs></g></svg>